<svg xmlns="http://www.w3.org/2000/svg" viewBox="0 0 128 128"><defs><style>.cls-1,.cls-2{stroke:#000;stroke-width:4px;fill:none;stroke-miterlimit:10}.cls-2{stroke:#ff790f;stroke-width:8px}</style></defs><path d="m82.4 98.9-4.96 13.62h-4.3l15.17-41.88h5.19l15.82 41.88h-4.61L99.63 98.9H82.4Zm15.99-3.79c-4.36-11.8-6.67-17.72-7.54-20.7h-.06c-1.02 3.34-3.6 10.61-7.12 20.7h14.72ZM54.56 34.08c-.18.78-.36 1.56-.6 2.28 10.56 1.86 14.46 8.46 14.46 15.54 0 9.54-8.16 15.3-23.16 16.98-.24-.84-1.08-2.64-1.62-3.6 12.42-1.2 20.4-5.52 20.4-13.26v-.42c-.3-6.96-4.98-10.38-11.4-11.46-2.58 6.78-6.96 13.08-11.94 17.64.42 1.26.96 2.34 1.56 3.24l-3.54 2.22c-.54-.84-1.02-1.86-1.44-3-4.8 3.54-8.64 4.5-11.34 4.5-4.8 0-7.26-3.54-7.26-7.98 0-8.28 6.84-14.88 15.54-18.36-.12-3.12-.12-6.54-.06-10.08-10.14 0-11.22 0-13.2-.12l-.12-3.96c3.06.18 8.28.18 13.44.18.06-2.76.18-6.12.3-8.94l6 .42c-.06.6-.66 1.08-1.56 1.2-.18 2.22-.3 4.98-.48 7.2 6.54-.18 18-.96 24.06-2.52l.54 4.08c-6.36 1.56-17.94 2.16-24.78 2.34-.12 3.12-.18 6.12-.12 8.94 4.2-1.32 7.98-1.38 9-1.38.9 0 1.68 0 2.46.06.24-.96.42-1.86.6-2.82l4.26 1.08ZM36.14 56.46c-.96-3.72-1.5-8.46-1.74-14.04-6.54 2.88-11.64 7.86-11.64 13.68 0 3.54 1.98 4.74 4.14 4.62 2.82-.06 6.06-1.68 9.24-4.26Zm12.3-16.86c-.96-.06-5.64-.18-10.14 1.44.12 4.86.54 9 1.38 12.36 3.6-3.66 6.84-8.52 8.76-13.8Z"/><path d="M48.84 96.25c-7.81-4.47-13.57-11.71-16.29-20.08" class="cls-1"/><path d="m49.77 88.83 8.4 11.14-13.85 1.71 5.45-12.85z"/><path d="M84.51 34.01c7.71 4.41 13.42 11.52 16.18 19.75" class="cls-1"/><path d="m83.59 41.44-8.41-11.15 13.85-1.71-5.44 12.86z"/><circle cx="64" cy="64" r="53" class="cls-2"/><path d="m26.52 26.52 74.96 74.96" class="cls-2"/></svg>
